<svg xmlns="http://www.w3.org/2000/svg" width="1024" height="1024" viewBox="0 0 1024 1024"><rect width="1024" height="1024" fill="#4FDBFF"/><g transform="translate(82.00,263.64) scale(0.185345)"><path fill="#fff" fill-rule="evenodd" d="M1705.50,2578.93C1679.10,2578.52 1653.96,2577.69 1649.63,2577.09C1645.30,2576.48 1631.80,2575.53 1619.63,2574.96C1607.46,2574.40 1589.40,2573.29 1579.50,2572.50C1569.60,2571.71 1551.60,2570.59 1539.50,2570.01C1504.60,2568.33 1495.28,2567.53 1447.00,2562.05C1437.38,2560.96 1423.65,2559.58 1416.50,2558.99C1409.35,2558.41 1399.41,2557.28 1394.41,2556.49C1389.41,2555.70 1379.06,2554.33 1371.41,2553.45C1363.76,2552.58 1343.55,2549.68 1326.50,2547.01C1309.45,2544.34 1291.22,2541.63 1286.00,2541.00C1280.78,2540.36 1271.10,2538.76 1264.50,2537.43C1257.90,2536.11 1247.78,2534.33 1242.00,2533.49C1236.22,2532.64 1221.15,2529.97 1208.50,2527.54C1195.85,2525.12 1176.28,2521.50 1165.00,2519.49C1153.72,2517.49 1139.33,2514.57 1133.00,2513.00C1126.67,2511.44 1113.32,2508.54 1103.33,2506.56C1093.34,2504.59 1078.71,2501.14 1070.83,2498.91C1062.95,2496.68 1045.03,2491.90 1031.00,2488.29C981.44,2475.51 969.23,2472.23 943.50,2464.73C907.25,2454.18 834.88,2429.94 807.46,2419.18C794.83,2414.22 778.88,2408.13 772.00,2405.64C765.12,2403.16 755.90,2399.48 751.50,2397.46C747.10,2395.45 739.16,2392.07 733.85,2389.95C728.54,2387.83 717.51,2382.98 709.35,2379.17C701.18,2375.36 690.45,2370.57 685.50,2368.53C677.38,2365.19 648.57,2351.47 630.50,2342.34C626.65,2340.40 617.65,2335.86 610.50,2332.25C603.35,2328.64 592.97,2322.90 587.44,2319.48C581.91,2316.07 570.08,2309.40 561.15,2304.67C552.23,2299.94 541.00,2293.51 536.21,2290.38C531.42,2287.25 522.63,2282.06 516.69,2278.84C510.74,2275.63 494.99,2265.42 481.69,2256.16C468.38,2246.89 452.77,2236.26 447.00,2232.53C434.96,2224.75 412.53,2207.86 396.50,2194.51C390.45,2189.47 381.90,2182.72 377.50,2179.51C373.10,2176.30 365.90,2170.24 361.50,2166.05C357.10,2161.85 350.57,2155.91 347.00,2152.84C332.99,2140.82 277.99,2083.76 266.19,2069.00C262.01,2063.78 255.36,2055.84 251.41,2051.37C247.47,2046.90 242.31,2040.38 239.95,2036.87C237.59,2033.37 232.87,2027.12 229.46,2023.00C226.05,2018.88 220.18,2010.78 216.42,2005.00C212.65,1999.22 205.44,1988.65 200.39,1981.50C184.85,1959.50 152.49,1898.97 144.67,1877.28C143.25,1873.33 139.18,1863.00 135.64,1854.30C121.73,1820.20 110.97,1780.89 102.04,1731.50C96.46,1700.66 96.05,1696.91 93.92,1656.50C92.49,1629.42 92.67,1601.62 94.49,1569.95C96.39,1537.02 97.32,1527.98 101.08,1506.00C107.91,1466.13 111.76,1448.90 118.50,1428.00C120.89,1420.58 124.05,1410.00 125.52,1404.50C126.99,1399.00 129.92,1389.78 132.04,1384.00C134.16,1378.22 137.08,1369.67 138.53,1365.00C140.93,1357.25 149.53,1336.17 161.98,1307.50C176.25,1274.63 191.05,1245.70 208.80,1216.00C230.28,1180.04 238.56,1166.59 243.81,1159.09C246.74,1154.91 255.31,1142.25 262.85,1130.95C270.40,1119.64 282.89,1102.54 290.61,1092.95C298.32,1083.35 307.30,1072.07 310.57,1067.89C334.26,1037.48 352.58,1016.18 371.36,997.19C388.77,979.59 392.45,976.69 396.73,977.18C399.21,977.47 399.53,977.94 399.81,981.71C400.01,984.57 399.26,987.94 397.46,992.21C396.01,995.67 392.67,1003.67 390.06,1010.00C387.44,1016.33 383.21,1025.65 380.65,1030.73C378.09,1035.81 374.24,1044.36 372.08,1049.73C369.92,1055.10 365.60,1064.90 362.46,1071.50C352.23,1093.07 327.02,1163.89 321.00,1188.00C319.83,1192.67 316.70,1203.25 314.05,1211.50C308.20,1229.71 306.33,1237.15 300.47,1265.50C293.79,1297.81 288.42,1330.45 285.50,1356.50C284.09,1369.15 282.49,1382.20 281.97,1385.50C278.71,1405.78 278.34,1488.72 281.41,1509.00C282.20,1514.22 284.24,1529.56 285.94,1543.08C289.11,1568.35 292.32,1583.69 298.40,1602.64C300.32,1608.61 303.05,1617.70 304.48,1622.84C308.42,1637.00 319.85,1664.71 330.40,1685.70C335.60,1696.04 341.25,1708.01 342.94,1712.31C344.64,1716.60 347.20,1722.45 348.63,1725.31C353.24,1734.49 369.79,1761.51 373.71,1766.24C386.23,1781.35 397.89,1793.87 416.66,1812.30C438.41,1833.68 450.81,1844.44 462.70,1852.25C494.63,1873.23 493.56,1872.60 530.00,1891.77C548.61,1901.56 573.39,1911.52 609.00,1923.50C617.52,1926.37 627.11,1929.69 630.30,1930.88C642.95,1935.61 687.94,1944.66 712.50,1947.42C742.71,1950.81 753.61,1951.46 777.50,1951.32C794.76,1951.21 808.69,1950.52 822.50,1949.08C872.17,1943.91 880.27,1942.97 892.40,1941.02C907.06,1938.66 939.62,1931.32 954.50,1927.01C960.00,1925.42 973.05,1921.86 983.50,1919.11C1004.30,1913.63 1028.26,1905.57 1051.50,1896.23C1088.83,1881.23 1147.57,1853.15 1170.50,1839.35C1178.75,1834.39 1191.12,1827.26 1198.00,1823.51C1204.88,1819.76 1216.58,1812.56 1224.00,1807.50C1231.42,1802.45 1242.00,1795.70 1247.50,1792.51C1253.00,1789.32 1260.41,1784.44 1263.97,1781.67C1267.52,1778.89 1275.86,1773.19 1282.50,1769.00C1289.14,1764.81 1297.48,1759.11 1301.03,1756.34C1304.59,1753.57 1311.71,1748.49 1316.85,1745.06C1328.83,1737.06 1332.46,1733.72 1342.23,1721.78C1348.03,1714.69 1357.12,1706.01 1375.36,1690.15C1416.07,1654.76 1471.58,1599.94 1496.02,1571.00C1509.49,1555.04 1522.49,1542.74 1528.18,1540.57C1532.38,1538.97 1533.00,1538.95 1535.80,1540.39C1540.60,1542.88 1543.52,1550.33 1547.38,1570.00C1551.73,1592.15 1553.01,1597.09 1559.21,1615.50C1566.41,1636.88 1580.28,1667.26 1588.06,1678.70C1600.69,1697.29 1609.36,1710.69 1613.48,1718.00C1620.85,1731.08 1623.89,1734.74 1639.63,1749.40C1650.76,1759.77 1656.92,1764.63 1665.38,1769.72C1671.50,1773.40 1680.51,1779.00 1685.41,1782.17C1690.32,1785.34 1698.64,1789.81 1703.91,1792.10C1709.19,1794.40 1720.92,1799.54 1730.00,1803.52C1755.82,1814.86 1768.15,1818.06 1799.00,1821.48C1824.68,1824.33 1838.15,1823.43 1874.50,1816.43C1901.45,1811.24 1906.50,1809.82 1926.50,1801.79C1956.46,1789.77 1985.13,1773.53 2015.89,1751.15C2035.07,1737.20 2045.46,1727.97 2055.72,1715.81C2059.45,1711.38 2067.45,1703.67 2073.50,1698.67C2095.02,1680.92 2143.63,1633.60 2165.12,1609.50C2194.61,1576.43 2202.59,1567.17 2217.73,1548.40C2232.67,1529.88 2239.39,1521.35 2256.21,1499.50C2259.60,1495.10 2266.93,1486.10 2272.50,1479.50C2278.08,1472.90 2289.66,1458.72 2298.24,1448.00C2313.41,1429.05 2335.30,1404.85 2341.45,1400.21C2343.12,1398.95 2345.39,1398.05 2346.50,1398.21C2348.23,1398.46 2348.50,1399.24 2348.46,1404.00C2348.40,1414.69 2333.63,1448.94 2307.40,1499.25C2299.45,1514.51 2291.00,1531.16 2288.64,1536.25C2286.27,1541.34 2281.02,1551.35 2276.96,1558.50C2272.91,1565.65 2266.16,1578.03 2261.96,1586.00C2257.77,1593.97 2249.72,1609.28 2244.07,1620.00C2238.43,1630.72 2233.42,1639.98 2232.94,1640.57C2232.46,1641.15 2228.97,1647.23 2225.19,1654.07C2221.40,1660.90 2215.68,1670.78 2212.47,1676.00C2209.25,1681.22 2200.68,1697.03 2193.42,1711.11C2180.01,1737.15 2155.33,1778.34 2144.93,1792.06C2141.78,1796.22 2134.51,1806.80 2128.78,1815.56C2113.14,1839.48 2106.01,1845.00 2090.78,1845.00C2087.01,1845.00 2076.40,1844.04 2067.21,1842.86C2053.19,1841.07 2045.02,1840.71 2016.50,1840.64C1979.71,1840.56 1973.55,1841.00 1934.00,1846.59C1884.57,1853.57 1882.45,1854.05 1842.00,1867.36C1794.32,1883.05 1766.41,1895.34 1733.00,1915.34C1714.26,1926.57 1680.66,1949.66 1661.09,1964.77C1645.30,1976.96 1624.95,1996.70 1613.41,2011.00C1608.31,2017.33 1602.59,2024.30 1600.70,2026.50C1595.34,2032.76 1576.07,2062.16 1568.05,2076.34C1555.01,2099.37 1547.48,2116.27 1539.92,2139.47C1526.52,2180.57 1522.62,2208.64 1524.81,2248.20C1526.86,2285.20 1533.49,2310.09 1550.08,2343.16C1558.63,2360.20 1584.33,2395.60 1597.37,2408.29C1612.46,2422.99 1645.08,2448.04 1656.90,2454.01C1679.06,2465.21 1726.16,2479.82 1751.98,2483.50C1779.54,2487.43 1815.39,2488.13 1853.59,2485.49C1886.64,2483.20 1894.46,2482.24 1905.97,2479.08C1911.76,2477.49 1920.33,2475.44 1925.00,2474.53C1941.43,2471.32 1968.11,2463.94 1983.23,2458.41C1991.63,2455.34 2003.54,2451.07 2009.71,2448.92C2015.88,2446.78 2024.88,2443.18 2029.71,2440.93C2034.54,2438.68 2042.95,2435.06 2048.38,2432.88C2064.40,2426.45 2114.16,2400.46 2124.07,2393.34C2129.00,2389.80 2138.13,2383.86 2144.35,2380.13C2150.57,2376.41 2158.77,2370.88 2162.58,2367.83C2166.38,2364.79 2172.35,2360.39 2175.83,2358.06C2179.32,2355.72 2185.17,2351.25 2188.83,2348.11C2192.50,2344.98 2201.35,2337.74 2208.50,2332.04C2215.65,2326.34 2224.88,2318.70 2229.00,2315.08C2233.12,2311.45 2239.65,2305.82 2243.50,2302.56C2251.00,2296.21 2260.20,2287.41 2293.85,2254.43C2325.13,2223.77 2351.66,2194.61 2381.90,2157.69C2405.23,2129.20 2413.15,2122.15 2428.21,2116.45C2455.73,2106.03 2480.67,2095.72 2497.23,2087.92C2507.83,2082.92 2522.35,2076.34 2529.50,2073.29C2546.98,2065.84 2556.87,2060.81 2594.50,2040.26C2630.81,2020.43 2629.69,2021.07 2644.50,2011.49C2650.55,2007.57 2658.65,2002.67 2662.50,2000.59C2666.35,1998.50 2681.88,1988.50 2697.00,1978.35C2743.48,1947.18 2773.88,1924.79 2794.03,1906.88C2800.23,1901.37 2808.03,1895.01 2811.37,1892.75C2814.70,1890.49 2820.60,1885.88 2824.47,1882.52C2828.33,1879.15 2837.77,1871.27 2845.44,1864.99C2877.69,1838.60 2899.01,1818.74 2952.74,1765.00C2981.16,1736.57 2987.22,1729.99 2992.79,1721.50C3002.02,1707.45 3009.37,1698.00 3019.63,1686.99C3035.03,1670.47 3046.31,1657.76 3052.92,1649.50C3056.43,1645.10 3062.35,1638.35 3066.07,1634.50C3069.79,1630.65 3075.68,1624.07 3079.16,1619.87C3082.65,1615.68 3088.51,1608.70 3092.19,1604.37C3095.86,1600.04 3102.31,1592.22 3106.51,1587.00C3155.54,1526.02 3153.32,1528.84 3179.23,1494.35C3192.65,1476.50 3197.70,1472.54 3203.61,1475.23C3209.19,1477.77 3212.55,1489.79 3216.00,1519.50C3218.90,1544.47 3223.42,1562.90 3235.42,1598.70C3244.74,1626.53 3246.85,1631.73 3257.29,1652.59C3263.65,1665.29 3271.39,1679.87 3274.49,1684.99C3277.60,1690.11 3283.98,1701.99 3288.67,1711.40C3300.55,1735.20 3314.90,1756.53 3330.22,1773.17C3358.05,1803.39 3391.79,1834.33 3415.23,1851.14C3437.97,1867.43 3476.95,1890.27 3492.00,1896.12C3497.78,1898.37 3510.15,1903.48 3519.50,1907.48C3528.85,1911.49 3541.22,1916.20 3547.00,1917.96C3552.78,1919.71 3563.00,1922.92 3569.72,1925.08C3582.72,1929.26 3626.48,1937.75 3649.00,1940.46C3681.71,1944.40 3697.21,1944.40 3737.00,1940.44C3768.19,1937.34 3807.48,1929.11 3836.00,1919.73C3873.41,1907.41 3925.90,1883.30 3957.00,1864.15C3975.85,1852.54 4011.24,1827.99 4023.33,1818.14C4029.84,1812.84 4039.29,1805.17 4044.33,1801.10C4049.38,1797.02 4059.12,1788.69 4066.00,1782.57C4072.88,1776.46 4080.53,1769.75 4083.00,1767.67C4085.47,1765.59 4094.93,1756.12 4104.02,1746.62C4117.21,1732.84 4121.73,1727.36 4126.46,1719.43C4130.60,1712.47 4135.40,1706.36 4142.50,1699.00C4148.07,1693.22 4155.50,1684.90 4159.00,1680.50C4162.50,1676.10 4168.36,1669.12 4172.02,1665.00C4175.68,1660.88 4181.34,1654.09 4184.59,1649.92C4187.84,1645.75 4193.13,1639.23 4196.33,1635.42C4199.54,1631.61 4204.82,1624.67 4208.05,1620.00C4211.29,1615.33 4217.37,1607.22 4221.57,1602.00C4225.77,1596.78 4232.68,1587.31 4236.93,1580.97C4241.18,1574.62 4248.45,1564.40 4253.08,1558.26C4261.47,1547.13 4282.18,1515.13 4298.24,1488.50C4302.89,1480.80 4309.70,1469.87 4313.38,1464.22C4317.07,1458.56 4323.74,1447.31 4328.22,1439.22C4332.70,1431.12 4338.65,1420.67 4341.45,1416.00C4354.14,1394.85 4397.98,1303.78 4411.99,1269.50C4425.25,1237.04 4431.97,1220.96 4433.55,1217.90C4434.48,1216.10 4438.12,1205.89 4441.64,1195.19C4445.16,1184.50 4450.69,1170.07 4453.93,1163.13C4457.16,1156.18 4461.02,1146.45 4462.50,1141.50C4463.97,1136.55 4468.68,1121.70 4472.95,1108.50C4487.06,1064.94 4497.04,1022.82 4506.95,965.00C4512.78,931.00 4516.99,916.47 4520.79,917.20C4525.42,918.09 4531.00,935.93 4534.48,960.92C4541.43,1010.97 4541.43,1010.94 4541.47,1051.00C4541.49,1071.90 4540.95,1095.46 4540.27,1104.23C4537.78,1135.99 4532.23,1171.11 4524.97,1201.00C4522.77,1210.08 4519.19,1224.92 4517.02,1234.00C4510.66,1260.54 4486.07,1330.91 4476.46,1350.09C4473.45,1356.09 4469.23,1365.38 4467.08,1370.75C4458.77,1391.47 4430.57,1444.23 4412.96,1472.00C4409.30,1477.78 4403.74,1487.00 4400.61,1492.50C4397.47,1498.00 4388.88,1511.05 4381.52,1521.50C4374.16,1531.95 4364.17,1546.12 4359.32,1553.00C4350.29,1565.81 4325.92,1596.91 4309.56,1616.50C4304.51,1622.55 4298.17,1630.42 4295.48,1634.00C4286.77,1645.57 4267.51,1667.19 4254.50,1680.00C4240.07,1694.22 4235.66,1699.48 4220.54,1720.50C4212.20,1732.09 4206.31,1738.89 4194.62,1750.38C4177.03,1767.69 4156.48,1786.95 4146.50,1795.48C4142.65,1798.77 4135.45,1805.32 4130.50,1810.03C4119.51,1820.49 4099.69,1837.45 4079.00,1854.11C4070.47,1860.97 4059.20,1870.16 4053.94,1874.54C4048.69,1878.92 4038.81,1886.78 4031.98,1892.00C4015.21,1904.85 3993.20,1921.86 3983.67,1929.35C3975.67,1935.63 3961.47,1945.77 3941.00,1959.80C3934.68,1964.14 3917.78,1975.74 3903.45,1985.59C3889.13,1995.44 3870.29,2008.00 3861.58,2013.50C3852.88,2019.00 3839.40,2027.72 3831.63,2032.87C3823.86,2038.02 3811.88,2045.38 3805.00,2049.22C3798.12,2053.07 3788.11,2059.08 3782.75,2062.58C3777.39,2066.08 3767.49,2071.96 3760.75,2075.63C3754.01,2079.30 3742.58,2086.05 3735.34,2090.62C3728.10,2095.20 3715.95,2102.38 3708.34,2106.59C3700.73,2110.81 3693.31,2115.09 3691.86,2116.11C3690.41,2117.14 3683.09,2120.88 3675.59,2124.44C3668.09,2127.99 3657.36,2133.70 3651.73,2137.12C3625.73,2152.94 3553.81,2188.67 3486.00,2219.45C3467.03,2228.06 3446.26,2237.55 3439.86,2240.53C3433.47,2243.51 3423.12,2247.93 3416.86,2250.36C3410.61,2252.78 3396.05,2258.91 3384.50,2263.97C3372.95,2269.04 3354.72,2276.70 3344.00,2280.99C3333.28,2285.29 3320.45,2290.58 3315.50,2292.75C3310.55,2294.92 3302.07,2298.15 3296.65,2299.92C3291.24,2301.70 3281.09,2305.57 3274.10,2308.53C3267.11,2311.49 3256.24,2315.76 3249.95,2318.01C3243.65,2320.27 3232.65,2324.54 3225.50,2327.51C3212.44,2332.93 3199.26,2337.72 3165.00,2349.46C3154.82,2352.95 3139.30,2358.29 3130.50,2361.32C3111.75,2367.79 3044.54,2389.35 3038.00,2391.00C3035.53,2391.62 3021.12,2396.13 3006.00,2401.02C2990.88,2405.90 2970.62,2412.14 2961.00,2414.88C2951.38,2417.62 2939.45,2421.02 2934.50,2422.45C2929.55,2423.87 2918.97,2426.65 2911.00,2428.62C2903.03,2430.60 2887.28,2434.83 2876.00,2438.03C2850.00,2445.41 2834.18,2449.48 2806.00,2456.02C2793.62,2458.89 2773.60,2463.64 2761.50,2466.57C2749.40,2469.50 2732.53,2473.47 2724.00,2475.40C2715.47,2477.32 2699.50,2480.97 2688.50,2483.51C2677.50,2486.04 2657.25,2490.14 2643.50,2492.61C2629.75,2495.08 2612.88,2498.41 2606.00,2500.01C2599.12,2501.62 2584.72,2504.52 2574.00,2506.46C2563.28,2508.40 2550.45,2510.88 2545.50,2511.98C2540.55,2513.07 2531.78,2514.68 2526.00,2515.56C2515.44,2517.16 2495.19,2520.71 2469.84,2525.41C2462.33,2526.80 2449.28,2528.86 2440.84,2529.97C2432.40,2531.09 2421.00,2532.89 2415.50,2533.98C2410.00,2535.07 2395.61,2537.12 2383.52,2538.54C2371.43,2539.97 2352.98,2542.47 2342.52,2544.10C2316.61,2548.15 2280.97,2552.54 2254.50,2554.94C2242.40,2556.04 2225.53,2557.83 2217.00,2558.91C2201.91,2560.82 2197.54,2561.25 2161.00,2564.47C2083.09,2571.32 2010.18,2575.66 1916.60,2579.00C1885.70,2580.11 1779.65,2580.07 1705.50,2578.93ZM2707.25,1646.88C2703.79,1643.34 2707.58,1631.82 2721.11,1604.76C2726.68,1593.62 2734.18,1579.55 2737.78,1573.50C2741.38,1567.45 2746.66,1557.55 2749.52,1551.50C2752.38,1545.45 2758.23,1534.20 2762.51,1526.50C2766.79,1518.80 2773.87,1505.30 2778.25,1496.50C2782.63,1487.70 2788.60,1476.22 2791.51,1471.00C2794.43,1465.78 2798.48,1457.58 2800.51,1452.80C2802.54,1448.01 2807.96,1437.47 2812.56,1429.37C2817.16,1421.27 2822.62,1410.78 2824.69,1406.07C2828.43,1397.55 2855.32,1343.77 2868.73,1318.00C2872.59,1310.58 2884.13,1287.96 2894.38,1267.73C2904.63,1247.51 2915.68,1225.91 2918.94,1219.73C2922.20,1213.56 2926.53,1204.67 2928.56,1200.00C2930.59,1195.33 2936.22,1184.30 2941.08,1175.50C2945.94,1166.70 2951.99,1154.55 2954.53,1148.50C2957.06,1142.45 2961.38,1133.99 2964.14,1129.69C2966.89,1125.40 2970.93,1118.00 2973.11,1113.25C2977.28,1104.18 3004.50,1051.34 3015.99,1030.00C3019.69,1023.12 3026.91,1009.40 3032.02,999.50C3037.14,989.60 3042.40,979.78 3043.72,977.68C3045.04,975.57 3049.63,967.47 3053.92,959.68C3064.71,940.07 3074.76,922.09 3084.48,905.00C3089.02,897.02 3098.26,880.15 3105.01,867.50C3111.77,854.85 3119.99,840.23 3123.28,835.00C3128.64,826.49 3132.55,819.90 3151.45,787.50C3154.33,782.55 3159.54,773.10 3163.02,766.50C3166.50,759.90 3172.35,750.00 3176.02,744.50C3179.69,739.00 3185.08,730.23 3187.99,725.00C3190.91,719.77 3197.20,709.20 3201.98,701.50C3236.63,645.68 3244.44,627.80 3248.47,595.03C3252.45,562.61 3249.69,546.02 3234.05,508.50C3221.15,477.54 3194.17,443.75 3171.00,429.53C3165.78,426.32 3158.22,421.49 3154.21,418.79C3144.61,412.33 3131.04,405.64 3120.23,402.04C3110.72,398.88 3083.40,393.59 3067.50,391.84C3041.13,388.94 3007.16,395.18 2982.19,407.52C2964.57,416.22 2937.45,436.94 2926.77,449.85C2923.32,454.03 2916.04,462.18 2910.59,467.97C2905.15,473.76 2895.70,484.54 2889.59,491.93C2883.49,499.32 2873.32,511.02 2866.98,517.93C2860.65,524.84 2852.81,533.88 2849.56,538.00C2846.31,542.12 2840.24,549.27 2836.07,553.89C2826.99,563.95 2818.52,573.62 2789.50,607.11C2777.41,621.08 2764.57,635.65 2760.98,639.50C2757.38,643.35 2752.93,648.30 2751.07,650.50C2749.22,652.70 2742.20,660.58 2735.47,668.00C2728.74,675.42 2718.88,686.90 2713.57,693.50C2704.09,705.27 2681.33,730.95 2663.50,749.99C2644.14,770.67 2584.80,836.34 2569.68,853.83C2563.18,861.35 2555.05,870.42 2551.61,874.00C2548.18,877.58 2543.87,882.30 2542.04,884.50C2535.85,891.95 2493.60,937.35 2476.92,954.47C2467.81,963.84 2456.83,975.55 2452.52,980.50C2442.62,991.90 2399.67,1036.62 2374.64,1061.60C2364.11,1072.11 2346.72,1089.87 2336.00,1101.08C2305.67,1132.77 2279.71,1158.46 2239.06,1197.00C2184.44,1248.79 2183.01,1250.13 2177.00,1254.95C2173.97,1257.38 2166.09,1264.57 2159.47,1270.93C2144.08,1285.74 2130.99,1297.55 2119.49,1307.00C2114.48,1311.12 2105.00,1319.31 2098.44,1325.19C2091.87,1331.06 2081.32,1340.06 2074.99,1345.19C2068.66,1350.31 2057.23,1359.90 2049.61,1366.50C2035.07,1379.08 2031.64,1381.89 2009.88,1399.05C1992.63,1412.66 1989.11,1415.13 1973.72,1424.47C1957.80,1434.12 1949.04,1437.36 1940.34,1436.81C1929.04,1436.09 1923.00,1428.77 1922.20,1414.83C1921.62,1404.79 1923.23,1398.06 1931.46,1376.30C1939.93,1353.91 1959.36,1311.57 1969.50,1293.41C1972.91,1287.31 1977.97,1277.55 1980.76,1271.71C1985.88,1260.99 2000.91,1233.87 2010.71,1217.68C2013.64,1212.82 2020.36,1201.12 2025.64,1191.68C2030.91,1182.23 2038.03,1170.45 2041.46,1165.50C2044.89,1160.55 2050.50,1151.78 2053.93,1146.00C2057.37,1140.22 2063.45,1130.55 2067.47,1124.50C2071.48,1118.45 2076.81,1110.10 2079.32,1105.96C2081.83,1101.81 2087.18,1093.90 2091.21,1088.39C2095.24,1082.89 2101.68,1073.30 2105.52,1067.09C2109.36,1060.89 2116.27,1050.79 2120.88,1044.66C2125.49,1038.52 2133.21,1027.88 2138.04,1021.00C2142.86,1014.12 2149.36,1005.58 2152.47,1002.00C2155.59,998.42 2160.97,991.23 2164.44,986.00C2167.91,980.77 2173.41,973.35 2176.66,969.50C2179.92,965.65 2187.33,956.20 2193.14,948.50C2198.94,940.80 2210.13,926.62 2218.00,917.00C2225.87,907.38 2236.33,894.18 2241.25,887.67C2246.16,881.16 2252.73,872.83 2255.85,869.17C2258.96,865.50 2264.14,859.21 2267.36,855.18C2270.57,851.15 2275.76,845.08 2278.90,841.68C2282.04,838.28 2287.49,831.90 2291.02,827.50C2294.56,823.10 2300.85,815.90 2305.01,811.50C2309.16,807.10 2315.90,799.45 2319.98,794.50C2324.05,789.55 2331.70,780.77 2336.97,775.00C2342.24,769.23 2352.83,757.34 2360.50,748.60C2368.16,739.85 2383.60,723.27 2394.81,711.76C2415.08,690.92 2430.94,671.37 2440.05,656.00C2445.05,647.56 2452.49,628.95 2455.52,617.30C2461.24,595.31 2461.44,563.66 2455.99,540.36C2453.70,530.55 2443.03,497.90 2440.51,493.00C2438.55,489.17 2421.24,463.97 2414.19,454.68C2409.25,448.16 2380.99,423.21 2371.00,416.53C2348.97,401.82 2323.87,391.97 2290.50,384.94C2263.15,379.18 2228.67,384.58 2201.50,398.87C2177.89,411.29 2167.45,418.66 2148.26,436.44C2138.14,445.82 2125.72,457.25 2120.68,461.84C2093.58,486.46 2023.45,556.26 2005.97,576.00C2001.34,581.23 1990.41,592.92 1981.67,602.00C1972.93,611.08 1961.45,623.90 1956.16,630.49C1950.87,637.09 1943.36,646.09 1939.48,650.49C1927.29,664.31 1911.80,682.89 1903.75,693.37C1899.49,698.91 1893.19,706.58 1889.75,710.40C1883.44,717.42 1878.79,723.32 1854.73,754.84C1833.63,782.48 1828.27,789.73 1814.92,808.66C1796.30,835.06 1785.06,851.54 1779.92,859.98C1777.41,864.12 1771.72,872.53 1767.29,878.68C1762.86,884.82 1755.74,895.40 1751.46,902.18C1747.18,908.95 1741.98,917.02 1739.90,920.10C1737.83,923.18 1732.78,931.73 1728.70,939.10C1724.61,946.47 1718.04,957.45 1714.09,963.50C1710.15,969.55 1704.40,979.45 1701.32,985.50C1698.24,991.55 1692.48,1002.35 1688.51,1009.50C1671.69,1039.79 1653.99,1073.22 1649.58,1082.99C1640.57,1103.00 1630.09,1117.95 1608.59,1141.50C1596.14,1155.14 1543.05,1207.76 1528.49,1220.90C1525.20,1223.88 1514.62,1233.55 1504.99,1242.40C1475.93,1269.12 1469.99,1274.32 1458.00,1283.52C1451.67,1288.38 1442.45,1296.00 1437.50,1300.45C1424.39,1312.23 1410.23,1323.64 1386.50,1341.53C1374.95,1350.24 1363.03,1359.30 1360.00,1361.67C1349.44,1369.93 1314.43,1395.67 1305.50,1401.74C1300.55,1405.10 1290.42,1412.14 1283.00,1417.39C1262.22,1432.09 1221.31,1459.26 1213.50,1463.55C1209.65,1465.66 1197.72,1472.53 1187.00,1478.81C1176.28,1485.09 1162.78,1492.73 1157.00,1495.79C1151.22,1498.85 1143.03,1503.56 1138.78,1506.25C1134.53,1508.95 1126.21,1513.30 1120.28,1515.93C1114.35,1518.56 1104.45,1523.25 1098.27,1526.35C1092.09,1529.46 1081.40,1534.25 1074.52,1536.99C1067.64,1539.74 1055.01,1545.15 1046.45,1549.02C1029.76,1556.57 1008.80,1564.09 989.50,1569.44C982.90,1571.27 969.03,1575.29 958.68,1578.38C916.87,1590.84 854.98,1598.26 818.75,1595.15C794.17,1593.05 762.97,1585.95 745.50,1578.49C723.56,1569.11 695.44,1551.55 683.97,1540.05C675.25,1531.31 663.78,1514.65 660.97,1506.64C655.97,1492.43 654.07,1459.62 656.91,1436.50C658.70,1421.89 664.71,1390.24 667.55,1380.41C672.01,1365.02 678.62,1355.14 685.63,1353.38C690.05,1352.27 703.10,1353.81 712.00,1356.48C716.67,1357.89 726.80,1360.18 734.50,1361.57C742.20,1362.96 750.98,1364.73 754.00,1365.49C757.02,1366.26 766.48,1367.83 775.00,1368.98C849.71,1379.09 853.82,1379.43 903.50,1379.46C941.55,1379.49 946.33,1379.29 970.00,1376.73C1014.71,1371.89 1054.25,1363.76 1087.50,1352.58C1099.60,1348.51 1113.91,1343.80 1119.29,1342.10C1124.67,1340.40 1135.02,1336.49 1142.29,1333.39C1159.99,1325.85 1204.95,1303.84 1218.00,1296.32C1223.78,1293.00 1234.12,1287.23 1241.00,1283.52C1267.86,1268.99 1327.41,1223.82 1360.50,1192.87C1365.45,1188.24 1373.19,1181.40 1377.71,1177.67C1382.22,1173.94 1389.63,1166.53 1394.17,1161.19C1398.71,1155.86 1407.19,1146.55 1413.02,1140.50C1430.23,1122.62 1432.83,1119.64 1440.17,1109.41C1444.02,1104.04 1450.68,1095.34 1454.97,1090.07C1459.27,1084.81 1465.47,1076.22 1468.76,1071.00C1472.05,1065.78 1479.78,1053.85 1485.93,1044.50C1492.09,1035.15 1498.99,1023.67 1501.27,1019.00C1503.55,1014.33 1508.17,1005.95 1511.55,1000.38C1514.92,994.82 1519.29,986.27 1521.26,981.38C1523.23,976.50 1526.94,968.00 1529.51,962.50C1539.74,940.64 1551.70,905.95 1559.34,876.00C1563.68,858.97 1568.86,825.23 1572.09,793.00C1576.43,749.50 1569.73,689.71 1556.41,653.26C1554.45,647.89 1550.63,636.86 1547.92,628.73C1540.89,607.65 1528.30,583.33 1508.71,553.00C1495.16,532.03 1469.56,499.75 1457.68,488.66C1450.96,482.39 1421.62,458.79 1411.59,451.60C1392.66,438.02 1362.03,421.79 1336.00,411.55C1314.66,403.16 1310.00,400.00 1310.00,393.91C1310.00,389.97 1313.13,386.70 1320.71,382.73C1328.71,378.53 1360.43,366.06 1374.00,361.78C1379.22,360.13 1388.67,356.41 1395.00,353.52C1401.33,350.62 1414.60,345.42 1424.50,341.96C1434.40,338.50 1453.08,331.87 1466.00,327.23C1518.53,308.37 1599.58,281.69 1623.17,275.49C1632.70,272.99 1643.94,269.62 1648.14,268.00C1652.33,266.39 1663.58,263.01 1673.14,260.50C1682.69,257.99 1695.45,254.41 1701.50,252.55C1707.55,250.68 1721.72,246.62 1733.00,243.53C1744.28,240.43 1760.70,235.91 1769.50,233.48C1792.83,227.02 1827.18,218.38 1845.27,214.42C1853.95,212.51 1868.80,208.99 1878.27,206.58C1887.75,204.18 1902.03,201.00 1910.00,199.52C1917.97,198.04 1935.53,194.13 1949.00,190.84C1962.47,187.55 1985.11,182.65 1999.30,179.96C2013.50,177.28 2028.35,174.18 2032.30,173.08C2036.26,171.99 2048.01,169.70 2058.42,167.99C2068.82,166.28 2089.87,162.42 2105.19,159.41C2132.50,154.05 2154.59,150.44 2178.50,147.44C2191.47,145.81 2216.23,141.76 2226.88,139.53C2232.81,138.29 2248.12,136.16 2274.50,132.93C2279.45,132.32 2285.33,131.43 2287.56,130.95C2294.11,129.54 2363.56,121.25 2387.50,119.02C2399.60,117.89 2412.88,116.54 2417.00,116.00C2421.12,115.47 2436.65,113.90 2451.50,112.51C2466.35,111.13 2484.51,109.34 2491.85,108.53C2514.17,106.10 2587.35,101.36 2639.00,99.00C2651.38,98.43 2668.25,97.53 2676.50,96.98C2699.65,95.46 2826.36,93.93 2875.50,94.58C2922.52,95.19 3047.29,100.64 3057.00,102.50C3058.38,102.76 3069.40,103.44 3081.50,104.01C3120.11,105.82 3152.20,108.68 3204.00,114.93C3217.47,116.56 3237.28,118.83 3248.00,119.98C3270.95,122.43 3300.42,126.42 3311.00,128.50C3315.12,129.31 3326.15,130.90 3335.50,132.03C3361.34,135.14 3370.84,136.68 3391.00,140.99C3401.18,143.17 3420.53,146.77 3434.00,148.99C3447.47,151.21 3466.60,154.82 3476.50,157.00C3486.40,159.19 3508.00,163.94 3524.50,167.54C3541.00,171.15 3559.00,175.43 3564.50,177.05C3570.00,178.66 3579.92,181.08 3586.55,182.42C3593.17,183.76 3604.87,186.67 3612.55,188.87C3620.22,191.08 3630.32,193.84 3635.00,195.01C3639.68,196.17 3656.10,200.77 3671.50,205.22C3686.90,209.66 3704.68,214.76 3711.00,216.54C3728.31,221.41 3759.85,231.70 3771.33,236.22C3776.92,238.42 3789.15,242.85 3798.50,246.05C3836.32,258.99 3850.80,264.28 3858.95,268.12C3863.65,270.34 3875.15,275.23 3884.50,278.99C3900.03,285.23 3926.37,296.63 3956.00,309.94C3962.32,312.78 3970.65,316.50 3974.50,318.21C3978.35,319.92 3984.88,323.21 3989.00,325.51C3993.12,327.82 4005.50,334.26 4016.50,339.82C4037.53,350.46 4054.00,360.69 4057.30,365.16C4060.09,368.95 4058.99,372.27 4054.27,374.31C4048.58,376.77 4040.71,377.83 4016.00,379.45C4003.62,380.27 3991.93,381.21 3990.00,381.55C3943.77,389.66 3894.40,404.13 3860.50,419.50C3851.70,423.48 3841.35,428.14 3837.50,429.85C3810.41,441.86 3759.47,471.14 3735.50,488.49C3728.35,493.66 3718.23,500.95 3713.01,504.69C3692.88,519.12 3652.36,552.39 3628.08,574.41C3600.93,599.04 3555.08,646.28 3529.00,676.50C3522.83,683.65 3512.09,695.97 3505.14,703.88C3491.56,719.33 3477.05,737.72 3464.96,754.83C3460.81,760.70 3453.74,770.11 3449.25,775.75C3437.27,790.78 3402.11,844.10 3386.78,870.50C3358.15,919.78 3339.12,954.80 3330.39,974.26C3327.87,979.89 3323.41,988.77 3320.48,994.00C3317.55,999.23 3313.75,1007.55 3312.02,1012.50C3310.30,1017.45 3306.04,1027.80 3302.57,1035.50C3299.10,1043.20 3294.59,1054.64 3292.55,1060.93C3287.00,1078.01 3283.67,1085.93 3274.93,1102.84C3266.19,1119.74 3260.77,1127.98 3249.53,1141.50C3245.41,1146.45 3238.12,1155.67 3233.33,1162.00C3218.78,1181.21 3210.04,1192.07 3201.51,1201.50C3197.04,1206.45 3189.36,1215.22 3184.45,1221.00C3175.57,1231.43 3133.01,1277.13 3129.50,1280.00C3128.49,1280.83 3123.07,1286.74 3117.46,1293.15C3111.85,1299.56 3096.21,1315.54 3082.72,1328.65C3039.78,1370.39 3000.65,1407.80 2996.00,1411.56C2991.35,1415.32 2967.37,1437.10 2951.49,1452.00C2942.64,1460.30 2931.23,1470.39 2910.00,1488.69C2904.22,1493.67 2898.15,1499.21 2896.50,1501.00C2894.85,1502.79 2889.22,1507.66 2884.00,1511.82C2878.78,1515.98 2871.35,1522.14 2867.50,1525.51C2863.65,1528.88 2855.10,1535.98 2848.50,1541.28C2841.90,1546.59 2832.64,1554.20 2827.92,1558.21C2823.20,1562.22 2815.55,1568.54 2810.92,1572.24C2806.29,1575.95 2799.77,1581.35 2796.43,1584.24C2793.09,1587.14 2785.89,1592.99 2780.43,1597.25C2774.97,1601.51 2767.76,1607.36 2764.42,1610.25C2752.76,1620.32 2727.85,1639.53 2721.58,1643.29C2714.54,1647.52 2709.19,1648.85 2707.25,1646.88ZM3609.00,1622.17C3601.59,1619.41 3598.54,1617.37 3593.34,1611.68C3579.74,1596.80 3571.79,1569.18 3571.84,1537.00C3571.89,1506.67 3575.25,1480.10 3584.49,1437.00C3587.02,1425.17 3590.17,1410.30 3591.48,1403.95C3592.79,1397.60 3595.74,1386.12 3598.03,1378.45C3611.26,1334.12 3614.91,1322.60 3621.48,1304.50C3625.48,1293.50 3630.19,1280.00 3631.95,1274.50C3633.71,1269.00 3637.09,1260.22 3639.47,1255.00C3641.84,1249.78 3645.05,1241.90 3646.60,1237.50C3648.16,1233.10 3652.10,1224.33 3655.36,1218.00C3658.62,1211.67 3664.59,1199.11 3668.63,1190.09C3672.67,1181.06 3678.41,1169.36 3681.40,1164.09C3684.38,1158.81 3689.49,1148.86 3692.75,1141.96C3696.01,1135.06 3700.41,1126.73 3702.53,1123.46C3704.65,1120.18 3709.33,1112.29 3712.94,1105.91C3725.89,1083.04 3749.66,1044.56 3757.86,1033.17C3762.47,1026.79 3768.51,1018.18 3771.29,1014.03C3774.07,1009.89 3778.89,1003.12 3781.99,999.00C3785.09,994.88 3790.84,986.77 3794.75,981.00C3798.67,975.23 3805.30,966.45 3809.50,961.50C3813.69,956.55 3819.50,949.12 3822.42,945.00C3828.02,937.06 3840.05,922.30 3852.80,907.69C3857.04,902.84 3865.68,892.85 3872.00,885.49C3878.32,878.13 3887.76,867.47 3892.96,861.80C3910.75,842.43 3950.40,805.53 3967.14,792.77C3972.39,788.77 3980.46,782.46 3985.08,778.74C4000.39,766.41 4017.03,760.16 4040.64,757.87C4062.09,755.79 4080.77,759.06 4097.47,767.81C4110.77,774.77 4125.85,791.75 4133.54,808.38C4139.60,821.50 4144.76,853.62 4143.53,870.50C4141.82,893.85 4133.27,937.16 4125.53,961.73C4124.19,966.00 4121.47,975.58 4119.51,983.00C4115.75,997.19 4102.68,1035.19 4095.42,1053.00C4089.31,1067.99 4082.77,1082.41 4066.81,1116.00C4059.11,1132.22 4050.90,1149.55 4048.57,1154.50C4046.23,1159.45 4042.08,1167.10 4039.33,1171.50C4036.59,1175.90 4031.26,1185.35 4027.50,1192.50C4020.81,1205.20 4004.96,1232.37 3992.40,1252.64C3988.95,1258.21 3983.45,1267.27 3980.19,1272.77C3976.92,1278.27 3971.23,1286.72 3967.54,1291.55C3963.86,1296.39 3957.57,1305.33 3953.58,1311.42C3949.58,1317.51 3939.22,1331.72 3930.54,1343.00C3921.86,1354.28 3911.68,1368.00 3907.91,1373.50C3891.97,1396.73 3851.48,1445.38 3826.35,1471.50C3801.74,1497.06 3762.48,1535.20 3749.50,1546.14C3744.55,1550.32 3733.97,1559.46 3726.00,1566.47C3708.68,1581.68 3698.78,1589.38 3687.72,1596.22C3683.20,1599.02 3676.35,1603.44 3672.50,1606.05C3663.40,1612.20 3649.28,1619.22 3640.64,1621.88C3631.92,1624.58 3615.86,1624.72 3609.00,1622.17ZM814.50,1122.03C805.84,1121.03 801.43,1119.30 798.42,1115.72C796.12,1112.99 795.85,1111.95 796.33,1107.87C796.64,1105.29 798.31,1100.36 800.04,1096.92C804.69,1087.72 831.83,1047.76 842.01,1035.15C846.85,1029.15 853.86,1020.02 857.58,1014.87C861.31,1009.72 866.51,1003.02 869.14,1000.00C871.78,996.98 876.99,990.13 880.72,984.80C884.45,979.46 895.38,966.25 905.00,955.43C914.62,944.62 928.27,929.19 935.32,921.14C951.55,902.61 970.74,883.13 983.11,872.65C988.40,868.17 997.40,860.19 1003.11,854.92C1008.83,849.65 1017.77,842.00 1023.00,837.93C1028.22,833.86 1037.82,826.12 1044.32,820.73C1078.58,792.33 1105.64,776.00 1135.50,765.72C1155.87,758.70 1161.63,757.71 1178.78,758.25C1195.51,758.78 1200.37,760.06 1206.92,765.66C1217.93,775.09 1219.39,789.50 1212.50,820.51C1208.19,839.89 1204.29,850.22 1192.69,873.00C1180.74,896.46 1165.87,919.65 1142.86,950.67C1121.48,979.50 1088.10,1014.13 1062.19,1034.33C1042.87,1049.41 1003.33,1075.86 995.50,1078.96C992.20,1080.27 980.48,1085.51 969.46,1090.61C938.93,1104.73 906.60,1114.27 875.00,1118.48C864.70,1119.85 824.01,1123.18 821.50,1122.86C820.95,1122.78 817.80,1122.41 814.50,1122.03Z"/></g></svg>
